<?xml version="1.0" encoding="UTF-8"?><svg id="Logo" xmlns="http://www.w3.org/2000/svg" viewBox="0 0 288 206.98"><defs><style>.cls-1{fill:#fff;}.cls-2{fill:#0047ba;}</style></defs><g><polygon class="cls-2" points="263.09 26.85 288 90.25 131.34 206.98 12.15 119.07 0 19.64 62.38 13.26 66.7 27.05 93.67 24.17 95.52 29.53 143.64 23.97 144.62 6.67 178.69 3.38 179.31 7.91 240.03 1.32 243.53 28.91 263.09 26.85"/><polygon class="cls-1" points="259.39 75.84 263.26 86.46 278.12 84.9 258.36 34.67 234.89 37.14 235.3 89.38 249.7 87.88 249.09 77.08 259.39 75.84"/><polygon class="cls-1" points="91.2 89.84 95.52 104.05 113.43 102.19 88.73 32 68.76 34.05 53.75 114.63 72.26 112.69 75.14 91.7 91.2 89.84"/><polygon class="cls-1" points="54.55 56.29 33.76 58.35 32.11 44.35 58.67 41.47 56.2 21.08 8.03 26.03 18.53 112.08 39.94 109.81 35.82 74.61 56.61 72.55 54.55 56.29"/><polygon class="cls-1" points="183.6 94.78 173.34 11.2 151.93 13.47 156.87 53.61 154.81 53.82 134.63 32.41 112.19 34.88 121.23 107.57 142.64 105.33 138.13 68.64 140.19 68.43 163.16 96.94 183.6 94.78"/><polygon class="cls-1" points="233.86 9.35 181.16 14.91 183.63 35.29 195.77 34.05 203.58 98.95 227.05 96.49 219.24 31.58 236.33 29.73 233.86 9.35"/><polygon class="cls-2" points="77.61 74.81 79.87 59.79 81.93 59.58 86.26 73.79 77.61 74.81"/><polygon class="cls-2" points="248.89 64.73 248.27 50.11 250.33 49.91 254.86 63.9 248.89 64.73"/></g><path class="cls-2" d="m245.71,6.48c-.36-3.46,2.01-6.11,5.28-6.45,3.29-.34,6.15,1.77,6.51,5.22.36,3.43-2.01,6.11-5.3,6.45-3.27.34-6.13-1.79-6.49-5.23Zm6.37,4.07c2.67-.28,4.47-2.33,4.17-5.17-.29-2.83-2.48-4.5-5.15-4.22-2.64.27-4.44,2.36-4.15,5.19.29,2.83,2.46,4.48,5.12,4.2Zm-.41-3.7l-.53.05.21,2.04-1.97.2-.66-6.32,2.86-.3c1.56-.16,2.69.64,2.81,1.84.08.75-.29,1.44-.92,1.89l1.45,2.3-2.21.23-1.05-1.95Zm-.82-2.73l.14,1.32.65-.07c.5-.05.79-.33.74-.78-.05-.46-.35-.6-.88-.54l-.65.07Z"/></svg>